<svg width="111" height="25" viewBox="0 0 111 25" fill="none" xmlns="http://www.w3.org/2000/svg">
<path d="M0.930625 19V1.72H4.33863V19H0.930625ZM2.80263 19V16.024H12.4266V19H2.80263ZM2.80263 11.584V8.728H10.9146V11.584H2.80263ZM2.80263 4.696V1.72H12.1866V4.696H2.80263ZM14.5499 12.4C14.5499 10.88 14.8619 9.616 15.4859 8.608C16.1099 7.6 16.9739 6.848 18.0779 6.352C19.1819 5.84 20.4619 5.584 21.9179 5.584C23.0699 5.584 24.0459 5.736 24.8459 6.04V8.8H24.6059C24.3179 8.656 23.9659 8.536 23.5499 8.44C23.1499 8.344 22.6939 8.296 22.1819 8.296C20.8699 8.296 19.8379 8.648 19.0859 9.352C18.3499 10.04 17.9819 11.056 17.9819 12.4C17.9819 13.744 18.3499 14.768 19.0859 15.472C19.8379 16.16 20.8699 16.504 22.1819 16.504C22.6939 16.504 23.1499 16.456 23.5499 16.36C23.9659 16.264 24.3179 16.144 24.6059 16H24.8459V18.76C24.0459 19.08 23.0699 19.24 21.9179 19.24C20.4139 19.24 19.1099 18.992 18.0059 18.496C16.9179 17.984 16.0699 17.224 15.4619 16.216C14.8539 15.192 14.5499 13.92 14.5499 12.4ZM26.9249 12.4C26.9249 10.912 27.1969 9.664 27.7409 8.656C28.2849 7.632 29.0449 6.864 30.0209 6.352C30.9969 5.84 32.1169 5.584 33.3809 5.584C34.6289 5.584 35.7409 5.84 36.7169 6.352C37.6929 6.864 38.4529 7.632 38.9969 8.656C39.5409 9.664 39.8129 10.912 39.8129 12.4C39.8129 13.904 39.5409 15.16 38.9969 16.168C38.4529 17.176 37.6929 17.944 36.7169 18.472C35.7409 18.984 34.6289 19.24 33.3809 19.24C32.1009 19.24 30.9729 18.984 29.9969 18.472C29.0369 17.944 28.2849 17.176 27.7409 16.168C27.1969 15.16 26.9249 13.904 26.9249 12.4ZM30.3569 12.4C30.3569 13.808 30.6129 14.872 31.1249 15.592C31.6369 16.296 32.3889 16.648 33.3809 16.648C34.3569 16.648 35.1009 16.296 35.6129 15.592C36.1249 14.872 36.3809 13.808 36.3809 12.4C36.3809 10.992 36.1249 9.936 35.6129 9.232C35.1009 8.512 34.3569 8.152 33.3809 8.152C32.3889 8.152 31.6369 8.512 31.1249 9.232C30.6129 9.936 30.3569 10.992 30.3569 12.4ZM43.2415 19V1.72H45.5455V16.984H52.9375V19H43.2415ZM55.2402 12.424C55.2402 11 55.4882 9.784 55.9842 8.776C56.4962 7.768 57.2002 7 58.0962 6.472C59.0082 5.928 60.0562 5.656 61.2402 5.656C62.4242 5.656 63.4642 5.928 64.3602 6.472C65.2722 7 65.9762 7.768 66.4722 8.776C66.9842 9.784 67.2402 11 67.2402 12.424C67.2402 13.848 66.9842 15.064 66.4722 16.072C65.9762 17.08 65.2722 17.856 64.3602 18.4C63.4642 18.928 62.4242 19.192 61.2402 19.192C60.0242 19.192 58.9682 18.928 58.0722 18.4C57.1762 17.856 56.4802 17.08 55.9842 16.072C55.4882 15.064 55.2402 13.848 55.2402 12.424ZM57.4962 12.424C57.4962 14.024 57.8162 15.232 58.4562 16.048C59.1122 16.864 60.0402 17.272 61.2402 17.272C62.4402 17.272 63.3602 16.864 64.0002 16.048C64.6562 15.232 64.9842 14.024 64.9842 12.424C64.9842 10.808 64.6562 9.6 64.0002 8.8C63.3602 7.984 62.4402 7.576 61.2402 7.576C60.0402 7.576 59.1122 7.984 58.4562 8.8C57.8162 9.6 57.4962 10.808 57.4962 12.424ZM76.5383 19.288C75.0983 19.288 73.8743 19.016 72.8663 18.472C71.8743 17.912 71.1143 17.12 70.5863 16.096C70.0743 15.072 69.8183 13.848 69.8183 12.424C69.8183 11 70.1063 9.784 70.6823 8.776C71.2583 7.768 72.0663 7 73.1063 6.472C74.1463 5.928 75.3543 5.656 76.7303 5.656C77.2903 5.656 77.7863 5.696 78.2183 5.776C78.6663 5.856 79.0263 5.96 79.2983 6.088L79.2023 8.008C79.0263 7.928 78.7383 7.84 78.3383 7.744C77.9543 7.632 77.4663 7.576 76.8743 7.576C75.3223 7.576 74.1303 7.992 73.2983 8.824C72.4823 9.656 72.0743 10.856 72.0743 12.424C72.0743 13.56 72.2503 14.496 72.6023 15.232C72.9703 15.952 73.4983 16.488 74.1863 16.84C74.8743 17.192 75.7223 17.368 76.7303 17.368C77.2903 17.368 77.7943 17.32 78.2423 17.224C78.7063 17.112 79.1143 16.976 79.4663 16.816L79.0823 17.488C79.0183 17.216 78.9703 16.896 78.9383 16.528C78.9063 16.144 78.8903 15.752 78.8903 15.352V4.888C78.8903 4.568 78.8823 4.152 78.8663 3.64C78.8663 3.128 78.8503 2.624 78.8183 2.128C78.8023 1.632 78.7623 1.24 78.6983 0.951999L78.7463 0.759999H81.0983V14.2C81.0983 14.52 81.0983 14.936 81.0983 15.448C81.1143 15.96 81.1303 16.464 81.1463 16.96C81.1783 17.456 81.2263 17.848 81.2903 18.136L81.2423 18.328C80.5703 18.584 79.8423 18.808 79.0583 19C78.2903 19.192 77.4503 19.288 76.5383 19.288ZM89.4543 24.76C88.8783 24.76 88.2463 24.704 87.5583 24.592C86.8703 24.496 86.2863 24.344 85.8063 24.136V22.168H85.9983C86.5263 22.408 87.1023 22.576 87.7263 22.672C88.3663 22.784 88.9423 22.84 89.4543 22.84C90.4943 22.84 91.3263 22.688 91.9503 22.384C92.5743 22.08 93.0223 21.616 93.2943 20.992C93.5823 20.368 93.7263 19.576 93.7263 18.616V9.4C93.7263 9.016 93.7343 8.656 93.7503 8.32C93.7823 7.984 93.8223 7.664 93.8703 7.36L94.2783 8.032C93.9263 7.92 93.5263 7.816 93.0783 7.72C92.6463 7.624 92.1743 7.576 91.6623 7.576C90.6063 7.576 89.7263 7.76 89.0223 8.128C88.3183 8.48 87.7903 9.016 87.4383 9.736C87.0863 10.44 86.9103 11.32 86.9103 12.376C86.9103 13.912 87.3023 15.064 88.0863 15.832C88.8863 16.6 90.0783 16.984 91.6623 16.984C92.1103 16.984 92.5343 16.952 92.9343 16.888C93.3343 16.824 93.7743 16.696 94.2543 16.504L94.2063 18.52C93.6623 18.648 93.1823 18.744 92.7663 18.808C92.3503 18.872 91.9503 18.904 91.5663 18.904C90.1903 18.904 88.9823 18.664 87.9423 18.184C86.9023 17.688 86.0943 16.96 85.5183 16C84.9423 15.024 84.6543 13.816 84.6543 12.376C84.6543 11.336 84.8063 10.408 85.1103 9.592C85.4303 8.76 85.8943 8.056 86.5023 7.48C87.1103 6.888 87.8463 6.44 88.7103 6.136C89.5743 5.816 90.5583 5.656 91.6623 5.656C92.3823 5.656 93.1423 5.744 93.9423 5.92C94.7423 6.08 95.4543 6.28 96.0782 6.52L96.1263 6.712C96.0623 7 96.0143 7.392 95.9823 7.888C95.9663 8.384 95.9503 8.888 95.9343 9.4C95.9343 9.912 95.9343 10.328 95.9343 10.648V18.616C95.9343 19.896 95.6783 20.992 95.1663 21.904C94.6703 22.832 93.9343 23.536 92.9583 24.016C91.9983 24.512 90.8303 24.76 89.4543 24.76ZM101.41 24.568V24.28L104.386 16.984L108.61 5.944H110.818V6.232L103.522 24.568H101.41ZM103.81 19.48L98.5302 6.232V5.944H100.834L105.082 17.032L103.81 19.48Z" fill="#4CAF4F"/>
</svg>
