<svg width="40" height="43" viewBox="0 0 40 43" fill="none" xmlns="http://www.w3.org/2000/svg">
<g id="Group 39799">
<g id="surface15508">
<path id="Vector" d="M2.30611 42.9246C1.37562 42.9246 0.531692 42.362 0.176807 41.5007C-0.182406 40.6395 0.0166757 39.6441 0.674511 38.9862L13.2253 26.4354C14.1298 25.5352 15.5883 25.5352 16.4885 26.4354C17.393 27.3356 17.393 28.7984 16.4885 29.6986L3.93772 42.2494C3.50926 42.6822 2.92067 42.9246 2.30611 42.9246Z" fill="#F2F2F2"/>
<path id="Vector_2" d="M39.2566 0.351453L6.43838 33.1653C-0.416959 26.31 -0.416959 15.1917 6.43838 8.33203C16.1934 -1.42297 39.2566 0.351453 39.2566 0.351453Z" fill="#F2F2F2"/>
<path id="Vector_3" d="M31.2717 33.1649C24.4164 40.0246 13.2981 40.0246 6.43848 33.1649L39.2567 0.351074C39.2567 0.351074 41.0311 23.4099 31.2717 33.1649Z" fill="#F2F2F2"/>
</g>
</g>
</svg>
